<svg width="48" height="48" viewBox="0 0 48 48" fill="none" xmlns="http://www.w3.org/2000/svg">
<path d="M0 12C0 5.37258 5.37258 0 12 0H36C42.6274 0 48 5.37258 48 12V36C48 42.6274 42.6274 48 36 48H12C5.37258 48 0 42.6274 0 36V12Z" fill="#1E3A8A"/>
<path fill-rule="evenodd" clip-rule="evenodd" d="M21 13.5C20.3038 13.5 19.6361 13.7766 19.1438 14.2688C18.6516 14.7611 18.375 15.4288 18.375 16.125V18H16.5C15.7044 18 14.9413 18.3161 14.3787 18.8787C13.8161 19.4413 13.5 20.2044 13.5 21V31.5C13.5 32.2956 13.8161 33.0587 14.3787 33.6213C14.9413 34.1839 15.7044 34.5 16.5 34.5H31.5C32.2956 34.5 33.0587 34.1839 33.6213 33.6213C34.1839 33.0587 34.5 32.2956 34.5 31.5V21C34.5 20.2044 34.1839 19.4413 33.6213 18.8787C33.0587 18.3161 32.2956 18 31.5 18H29.625V16.125C29.625 15.4288 29.3484 14.7611 28.8562 14.2688C28.3639 13.7766 27.6962 13.5 27 13.5H21ZM27.375 18V16.125C27.375 16.0255 27.3355 15.9302 27.2652 15.8598C27.1948 15.7895 27.0995 15.75 27 15.75H21C20.9005 15.75 20.8052 15.7895 20.7348 15.8598C20.6645 15.9302 20.625 16.0255 20.625 16.125V18H27.375ZM16.5 20.25H31.5C31.6989 20.25 31.8897 20.329 32.0303 20.4697C32.171 20.6103 32.25 20.8011 32.25 21V22.5H15.75V21C15.75 20.8011 15.829 20.6103 15.9697 20.4697C16.1103 20.329 16.3011 20.25 16.5 20.25ZM15.75 24.75V31.5C15.75 31.6989 15.829 31.8897 15.9697 32.0303C16.1103 32.171 16.3011 32.25 16.5 32.25H31.5C31.6989 32.25 31.8897 32.171 32.0303 32.0303C32.171 31.8897 32.25 31.6989 32.25 31.5V24.75H25.5V27H22.5V24.75H15.75Z" fill="white"/>
</svg>
