<svg width="64" height="64" viewBox="0 0 64 64" fill="none" xmlns="http://www.w3.org/2000/svg">
<path d="M0 16C0 7.16344 7.16344 0 16 0H48C56.8366 0 64 7.16344 64 16V48C64 56.8366 56.8366 64 48 64H16C7.16344 64 0 56.8366 0 48V16Z" fill="#1E3A8A"/>
<path d="M44 25.9999V23.9999C44 23.2927 43.719 22.6144 43.219 22.1143C42.7189 21.6142 42.0406 21.3333 41.3333 21.3333H22.6667C21.9594 21.3333 21.2811 21.6142 20.781 22.1143C20.281 22.6144 20 23.2927 20 23.9999V42.6666C20 43.3738 20.281 44.0521 20.781 44.5522C21.2811 45.0523 21.9594 45.3333 22.6667 45.3333H27.3333" stroke="white" stroke-width="2.66667" stroke-linecap="round" stroke-linejoin="round"/>
<path d="M37.3334 18.6667V24.0001" stroke="white" stroke-width="2.66667" stroke-linecap="round" stroke-linejoin="round"/>
<path d="M26.6666 18.6667V24.0001" stroke="white" stroke-width="2.66667" stroke-linecap="round" stroke-linejoin="round"/>
<path d="M20 29.3333H26.6667" stroke="white" stroke-width="2.66667" stroke-linecap="round" stroke-linejoin="round"/>
<path d="M39.3334 39.3334L37.3334 37.7334V34.6667" stroke="white" stroke-width="2.66667" stroke-linecap="round" stroke-linejoin="round"/>
<path d="M37.3334 45.3333C41.7517 45.3333 45.3334 41.7515 45.3334 37.3333C45.3334 32.915 41.7517 29.3333 37.3334 29.3333C32.9151 29.3333 29.3334 32.915 29.3334 37.3333C29.3334 41.7515 32.9151 45.3333 37.3334 45.3333Z" stroke="white" stroke-width="2.66667" stroke-linecap="round" stroke-linejoin="round"/>
</svg>
