<svg width="48" height="48" viewBox="0 0 48 48" fill="none" xmlns="http://www.w3.org/2000/svg">
<path d="M0 12C0 5.37258 5.37258 0 12 0H36C42.6274 0 48 5.37258 48 12V36C48 42.6274 42.6274 48 36 48H12C5.37258 48 0 42.6274 0 36V12Z" fill="#1E3A8A"/>
<path d="M33 19C33 21.21 28.97 23 24 23C19.03 23 15 21.21 15 19M33 19C33 16.79 28.97 15 24 15C19.03 15 15 16.79 15 19M33 19V24M15 19V24M33 24C33 26.21 28.97 28 24 28C19.03 28 15 26.21 15 24M33 24V29C33 31.21 28.97 33 24 33C19.03 33 15 31.21 15 29V24" stroke="white" stroke-width="2" stroke-linecap="round" stroke-linejoin="round"/>
</svg>
