<svg width="40" height="40" viewBox="0 0 40 40" fill="none" xmlns="http://www.w3.org/2000/svg">
<path d="M0 20C0 8.95431 8.95431 0 20 0C31.0457 0 40 8.95431 40 20C40 31.0457 31.0457 40 20 40C8.95431 40 0 31.0457 0 20Z" fill="#EFF6FF"/>
<path d="M11.7183 19.7101C11.6489 19.8972 11.6489 20.103 11.7183 20.2901C12.3948 21.9302 13.5429 23.3325 15.0173 24.3193C16.4917 25.3061 18.2259 25.8329 20 25.8329C21.7741 25.8329 23.5083 25.3061 24.9827 24.3193C26.4571 23.3325 27.6053 21.9302 28.2817 20.2901C28.3511 20.103 28.3511 19.8972 28.2817 19.7101C27.6053 18.0699 26.4571 16.6676 24.9827 15.6808C23.5083 14.694 21.7741 14.1672 20 14.1672C18.2259 14.1672 16.4917 14.694 15.0173 15.6808C13.5429 16.6676 12.3948 18.0699 11.7183 19.7101Z" stroke="#155DFC" stroke-width="1.66667" stroke-linecap="round" stroke-linejoin="round"/>
<path d="M20 22.5C21.3807 22.5 22.5 21.3807 22.5 20C22.5 18.6193 21.3807 17.5 20 17.5C18.6193 17.5 17.5 18.6193 17.5 20C17.5 21.3807 18.6193 22.5 20 22.5Z" stroke="#155DFC" stroke-width="1.66667" stroke-linecap="round" stroke-linejoin="round"/>
</svg>
