<svg width="40" height="40" viewBox="0 0 40 40" fill="none" xmlns="http://www.w3.org/2000/svg">
<path d="M0 20C0 8.95431 8.95431 0 20 0C31.0457 0 40 8.95431 40 20C40 31.0457 31.0457 40 20 40C8.95431 40 0 31.0457 0 20Z" fill="#EFF6FF"/>
<path d="M25.8333 19.1666H14.1667C13.2462 19.1666 12.5 19.9128 12.5 20.8333V26.6666C12.5 27.5871 13.2462 28.3333 14.1667 28.3333H25.8333C26.7538 28.3333 27.5 27.5871 27.5 26.6666V20.8333C27.5 19.9128 26.7538 19.1666 25.8333 19.1666Z" stroke="#155DFC" stroke-width="1.66667" stroke-linecap="round" stroke-linejoin="round"/>
<path d="M15.8333 19.1666V15.8333C15.8333 14.7282 16.2722 13.6684 17.0536 12.887C17.835 12.1056 18.8948 11.6666 19.9999 11.6666C21.105 11.6666 22.1648 12.1056 22.9462 12.887C23.7276 13.6684 24.1666 14.7282 24.1666 15.8333V19.1666" stroke="#155DFC" stroke-width="1.66667" stroke-linecap="round" stroke-linejoin="round"/>
</svg>
