<svg width="64" height="64" viewBox="0 0 64 64" fill="none" xmlns="http://www.w3.org/2000/svg">
<path d="M32.1492 50.531C28.5202 50.531 24.9727 49.4549 21.9553 47.4387C18.9379 45.4225 16.5861 42.5569 15.1973 39.2041C13.8086 35.8514 13.4452 32.1621 14.1532 28.6028C14.8612 25.0436 16.6087 21.7742 19.1748 19.2081C21.7409 16.642 25.0103 14.8945 28.5695 14.1865C32.1288 13.4785 35.8181 13.8419 39.1708 15.2306C42.5236 16.6194 45.3892 18.9712 47.4054 21.9886C49.4216 25.006 50.4977 28.5535 50.4977 32.1824" stroke="url(#paint0_linear_364_220)" stroke-width="10.4665" stroke-linecap="round"/>
<circle cx="32.0428" cy="32.0429" r="3.64611" fill="url(#paint1_linear_364_220)"/>
<path d="M36.3058 37.5154C36.0302 36.7614 36.7621 36.0295 37.5161 36.3051L55.2536 42.7884C56.0958 43.0963 56.0742 44.2949 55.2214 44.5722L47.6428 47.0364C47.3556 47.1298 47.1305 47.3549 47.0371 47.642L44.5729 55.2207C44.2956 56.0735 43.097 56.0951 42.7891 55.2529L36.3058 37.5154Z" fill="url(#paint2_linear_364_220)"/>
<defs>
<linearGradient id="paint0_linear_364_220" x1="8.56738" y1="46.2647" x2="70.5463" y2="33.8234" gradientUnits="userSpaceOnUse">
<stop stop-color="#0A32C2"/>
<stop offset="1" stop-color="#8BB4FF"/>
</linearGradient>
<linearGradient id="paint1_linear_364_220" x1="28.3967" y1="34.2202" x2="37.9796" y2="32.2966" gradientUnits="userSpaceOnUse">
<stop stop-color="#0A32C2"/>
<stop offset="1" stop-color="#8BB4FF"/>
</linearGradient>
<linearGradient id="paint2_linear_364_220" x1="40.673" y1="54.7658" x2="55.8188" y2="32.6735" gradientUnits="userSpaceOnUse">
<stop stop-color="#0A32C2"/>
<stop offset="1" stop-color="#8BB4FF"/>
</linearGradient>
</defs>
</svg>
