<svg width="144" height="48" viewBox="0 0 144 48" fill="none" xmlns="http://www.w3.org/2000/svg">
<path d="M24.1119 37.8979C21.3901 37.8979 18.7295 37.0908 16.4664 35.5787C14.2034 34.0666 12.4396 31.9173 11.398 29.4028C10.3564 26.8882 10.0839 24.1213 10.6149 21.4518C11.1459 18.7824 12.4565 16.3303 14.3811 14.4057C16.3057 12.4812 18.7577 11.1705 21.4271 10.6395C24.0966 10.1086 26.8636 10.3811 29.3781 11.4227C31.8927 12.4642 34.0419 14.2281 35.554 16.4911C37.0662 18.7542 37.8733 21.4148 37.8733 24.1365" stroke="white" stroke-width="7.84987" stroke-linecap="round"/>
<circle cx="24.0322" cy="24.0324" r="2.73458" fill="white"/>
<path d="M27.2294 28.1368C27.0227 27.5713 27.5716 27.0224 28.1371 27.2291L41.4402 32.0916C42.0719 32.3225 42.0557 33.2215 41.4161 33.4294L35.7321 35.2776C35.5168 35.3476 35.3479 35.5164 35.2779 35.7318L33.4298 41.4158C33.2218 42.0554 32.3228 42.0716 32.0919 41.4399L27.2294 28.1368Z" fill="white"/>
<path d="M58.7366 31.6768C58.2403 31.6768 57.754 31.5929 57.2778 31.4253C56.8082 31.2576 56.3823 31.0094 56 30.6807L57.3381 29.071C57.5058 29.2118 57.707 29.3325 57.9418 29.4332C58.1766 29.5338 58.4415 29.5841 58.7366 29.5841C59.1391 29.5841 59.5046 29.4801 59.8333 29.2722C60.1687 29.0575 60.437 28.7792 60.6382 28.4371C60.8394 28.0883 60.94 27.7161 60.94 27.3203V17.3296H63.0327V27.3203C63.0327 28.1051 62.8382 28.8295 62.4492 29.4935C62.0602 30.1508 61.5403 30.6807 60.8897 31.0832C60.2458 31.4789 59.5281 31.6768 58.7366 31.6768Z" fill="white"/>
<path d="M69.449 31.6767C68.5234 31.6767 67.6783 31.4386 66.9136 30.9624C66.1557 30.4861 65.5487 29.8489 65.0926 29.0508C64.6432 28.2459 64.4185 27.3571 64.4185 26.3846C64.4185 25.6467 64.5493 24.9592 64.8108 24.322C65.0724 23.6781 65.4313 23.1147 65.8874 22.6317C66.3502 22.1421 66.8868 21.7598 67.4972 21.4848C68.1075 21.2098 68.7582 21.0723 69.449 21.0723C70.3747 21.0723 71.2164 21.3104 71.9744 21.7866C72.739 22.2628 73.3461 22.9034 73.7954 23.7083C74.2516 24.5132 74.4796 25.4053 74.4796 26.3846C74.4796 27.1157 74.3488 27.7998 74.0872 28.437C73.8256 29.0742 73.4634 29.6377 73.0006 30.1273C72.5445 30.6102 72.0113 30.9892 71.4009 31.2642C70.7972 31.5392 70.1466 31.6767 69.449 31.6767ZM69.449 29.584C70.0057 29.584 70.5055 29.4364 70.9481 29.1413C71.3908 28.8462 71.7396 28.4571 71.9945 27.9742C72.2561 27.4846 72.3869 26.9547 72.3869 26.3846C72.3869 25.801 72.2527 25.2644 71.9844 24.7748C71.7229 24.2851 71.3707 23.8961 70.928 23.6077C70.4853 23.3125 69.9923 23.165 69.449 23.165C68.899 23.165 68.3993 23.3125 67.9499 23.6077C67.5072 23.9028 67.1551 24.2952 66.8935 24.7848C66.6386 25.2745 66.5112 25.8077 66.5112 26.3846C66.5112 26.9815 66.6453 27.5215 66.9136 28.0044C67.1819 28.4873 67.5374 28.873 67.9801 29.1614C68.4295 29.4431 68.9191 29.584 69.449 29.584Z" fill="white"/>
<path d="M81.097 21.0721C82.0763 21.0721 82.9651 21.3102 83.7632 21.7864C84.5681 22.2627 85.2087 22.9032 85.6849 23.7081C86.1611 24.5063 86.3993 25.395 86.3993 26.3743C86.3993 27.1054 86.2618 27.793 85.9868 28.4369C85.7117 29.0741 85.3294 29.6375 84.8398 30.1271C84.3568 30.6101 83.7934 30.989 83.1495 31.2641C82.5123 31.5391 81.8281 31.6766 81.097 31.6766C80.3928 31.6766 79.7757 31.5156 79.2458 31.1936C78.7226 30.865 78.2933 30.4457 77.958 29.936V31.415H75.8652V16.3232H77.958V22.8127C78.2933 22.2962 78.7226 21.877 79.2458 21.555C79.7757 21.2331 80.3928 21.0721 81.097 21.0721ZM81.0769 29.6442C81.6605 29.6442 82.1937 29.4966 82.6766 29.2015C83.1596 28.9064 83.5419 28.5106 83.8236 28.0143C84.112 27.5179 84.2562 26.9713 84.2562 26.3743C84.2562 25.764 84.112 25.2106 83.8236 24.7142C83.5352 24.2179 83.1495 23.8255 82.6666 23.5371C82.1836 23.242 81.6537 23.0944 81.0769 23.0944C80.4934 23.0944 79.9802 23.242 79.5376 23.5371C79.0949 23.8322 78.7494 24.228 78.5013 24.7243C78.2531 25.2207 78.129 25.7707 78.129 26.3743C78.129 26.978 78.2531 27.528 78.5013 28.0244C78.7494 28.5207 79.0949 28.9164 79.5376 29.2116C79.9802 29.5 80.4934 29.6442 81.0769 29.6442Z" fill="white"/>
<path d="M100.442 31.6767L98.8321 30.077C98.2686 30.5331 97.6381 30.8886 96.9406 31.1435C96.243 31.3983 95.5052 31.5258 94.7271 31.5258C93.7679 31.5258 92.8691 31.338 92.0307 30.9624C91.1923 30.58 90.4545 30.0569 89.8173 29.3928C89.1801 28.7221 88.6804 27.944 88.3182 27.0586C87.9627 26.1733 87.7849 25.2275 87.7849 24.2214C87.7849 23.2153 87.9627 22.2729 88.3182 21.3942C88.6804 20.5088 89.1801 19.7308 89.8173 19.06C90.4545 18.3893 91.1923 17.8661 92.0307 17.4905C92.8691 17.1082 93.7679 16.917 94.7271 16.917C95.6863 16.917 96.5817 17.1082 97.4134 17.4905C98.2519 17.8661 98.9897 18.3893 99.6269 19.06C100.264 19.7308 100.76 20.5088 101.116 21.3942C101.478 22.2729 101.659 23.2153 101.659 24.2214C101.659 25.0397 101.535 25.8178 101.287 26.5556C101.046 27.2867 100.71 27.9574 100.281 28.5678L101.921 30.1977L100.442 31.6767ZM94.7271 29.4331C95.1966 29.4331 95.6527 29.3559 96.0954 29.2017C96.5448 29.0474 96.9506 28.8294 97.3128 28.5477L95.7533 26.9983L97.2323 25.5092L98.7214 27.0083C99.0031 26.6059 99.2144 26.1665 99.3552 25.6903C99.4961 25.2141 99.5665 24.7244 99.5665 24.2214C99.5665 23.5037 99.4391 22.8329 99.1842 22.2092C98.936 21.5787 98.5872 21.0253 98.1378 20.5491C97.6951 20.0661 97.182 19.6905 96.5985 19.4222C96.0149 19.1472 95.3911 19.0097 94.7271 19.0097C94.0564 19.0097 93.4292 19.1472 92.8457 19.4222C92.2621 19.6972 91.7457 20.0762 91.2963 20.5591C90.8536 21.0354 90.5048 21.5887 90.2499 22.2192C90.0017 22.843 89.8776 23.5104 89.8776 24.2214C89.8776 24.9391 90.0017 25.6132 90.2499 26.2437C90.5048 26.8742 90.8569 27.4309 91.3063 27.9138C91.7557 28.3901 92.2722 28.7623 92.8557 29.0306C93.4393 29.2989 94.0631 29.4331 94.7271 29.4331Z" fill="white"/>
<path d="M103.307 27.6422V21.354H105.399V27.1291C105.399 27.5785 105.51 27.9877 105.731 28.3566C105.953 28.7255 106.248 29.0206 106.617 29.2419C106.986 29.4566 107.391 29.5639 107.834 29.5639C108.284 29.5639 108.689 29.4566 109.052 29.2419C109.42 29.0206 109.712 28.7255 109.927 28.3566C110.148 27.9877 110.259 27.5785 110.259 27.1291V21.354H112.352L112.362 31.4152H110.269L110.259 30.3285C109.917 30.7444 109.491 31.0731 108.981 31.3145C108.471 31.556 107.925 31.6767 107.341 31.6767C106.597 31.6767 105.919 31.4956 105.309 31.1334C104.698 30.7712 104.212 30.285 103.85 29.6746C103.488 29.0642 103.307 28.3867 103.307 27.6422Z" fill="white"/>
<path d="M113.808 21.6156H115.9V31.6767H113.808V21.6156ZM114.874 20.1567C114.552 20.1567 114.284 20.0527 114.069 19.8448C113.855 19.6369 113.747 19.3753 113.747 19.06C113.747 18.7515 113.855 18.4933 114.069 18.2853C114.284 18.0707 114.549 17.9634 114.864 17.9634C115.173 17.9634 115.434 18.0707 115.649 18.2853C115.864 18.4933 115.971 18.7515 115.971 19.06C115.971 19.3753 115.864 19.6369 115.649 19.8448C115.441 20.0527 115.183 20.1567 114.874 20.1567Z" fill="white"/>
<path d="M124.53 28.5578L126.401 29.5739C125.945 30.2111 125.365 30.7209 124.661 31.1032C123.963 31.4856 123.205 31.6767 122.387 31.6767C121.461 31.6767 120.616 31.4386 119.852 30.9624C119.094 30.4861 118.487 29.8489 118.031 29.0508C117.581 28.2459 117.356 27.3571 117.356 26.3846C117.356 25.6467 117.487 24.9592 117.749 24.322C118.01 23.6781 118.369 23.1147 118.825 22.6317C119.288 22.1421 119.825 21.7598 120.435 21.4848C121.046 21.2098 121.696 21.0723 122.387 21.0723C123.205 21.0723 123.963 21.2634 124.661 21.6457C125.365 22.0281 125.945 22.5412 126.401 23.1851L124.53 24.2013C124.248 23.8659 123.92 23.611 123.544 23.4366C123.168 23.2555 122.783 23.165 122.387 23.165C121.837 23.165 121.337 23.3159 120.888 23.6177C120.445 23.9129 120.093 24.3052 119.831 24.7949C119.577 25.2778 119.449 25.8077 119.449 26.3846C119.449 26.9547 119.58 27.4846 119.842 27.9742C120.103 28.4571 120.455 28.8462 120.898 29.1413C121.347 29.4364 121.844 29.584 122.387 29.584C122.803 29.584 123.199 29.4901 123.574 29.3023C123.95 29.1145 124.268 28.8663 124.53 28.5578Z" fill="white"/>
<path d="M136.389 31.6767H133.975L131.5 27.4108L129.88 29.3425V31.6767H127.787V16.585H129.88V26.0927L133.623 21.6155H136.359L132.928 25.7104L136.389 31.6767Z" fill="white"/>
</svg>
