<svg width="48" height="48" viewBox="0 0 48 48" fill="none" xmlns="http://www.w3.org/2000/svg">
<path d="M0 12C0 5.37258 5.37258 0 12 0H36C42.6274 0 48 5.37258 48 12V36C48 42.6274 42.6274 48 36 48H12C5.37258 48 0 42.6274 0 36V12Z" fill="#1E3A8A"/>
<path d="M24 14C29.523 14 34 18.477 34 24C34 29.523 29.523 34 24 34C22.3578 34.0025 20.7405 33.5988 19.292 32.825L14 34L15.176 28.71C14.4015 27.261 13.9975 25.643 14 24C14 18.477 18.477 14 24 14ZM24 16C21.8783 16 19.8434 16.8429 18.3432 18.3431C16.8429 19.8434 16 21.8783 16 24C16 25.335 16.326 26.618 16.94 27.766L17.29 28.42L16.634 31.366L19.582 30.712L20.235 31.061C21.3933 31.6798 22.6868 32.0024 24 32C26.1217 32 28.1566 31.1571 29.6569 29.6569C31.1572 28.1566 32 26.1217 32 24C32 21.8783 31.1572 19.8434 29.6569 18.3431C28.1566 16.8429 26.1217 16 24 16ZM24 19C24.7957 19 25.5587 19.3161 26.1213 19.8787C26.6839 20.4413 27 21.2044 27 22V23H28V28H20V23H21V22C21 21.2044 21.3161 20.4413 21.8787 19.8787C22.4413 19.3161 23.2044 19 24 19ZM26 25H22V26H26V25ZM24 21C23.448 21 23 21.45 23 22V23H25V22C25 21.7348 24.8947 21.4804 24.7071 21.2929C24.5196 21.1054 24.2652 21 24 21Z" fill="white"/>
</svg>
