<svg width="64" height="64" viewBox="0 0 64 64" fill="none" xmlns="http://www.w3.org/2000/svg">
<path d="M0 16C0 7.16344 7.16344 0 16 0H48C56.8366 0 64 7.16344 64 16V48C64 56.8366 56.8366 64 48 64H16C7.16344 64 0 56.8366 0 48V16Z" fill="#1E3A8A"/>
<path d="M44 32C44 34.3734 43.2962 36.6935 41.9776 38.6668C40.6591 40.6402 38.7849 42.1783 36.5922 43.0866C34.3995 43.9948 31.9867 44.2324 29.6589 43.7694C27.3312 43.3064 25.193 42.1635 23.5147 40.4853C21.8365 38.8071 20.6936 36.6689 20.2306 34.3411C19.7676 32.0133 20.0052 29.6005 20.9135 27.4078C21.8217 25.2151 23.3598 23.3409 25.3332 22.0224C27.3066 20.7038 29.6266 20 32 20C35.36 20 38.5733 21.3333 40.9867 23.6533L44 26.6667" stroke="white" stroke-width="2.66667" stroke-linecap="round" stroke-linejoin="round"/>
<path d="M44 20V26.6667H37.3334" stroke="white" stroke-width="2.66667" stroke-linecap="round" stroke-linejoin="round"/>
</svg>
