<svg width="48" height="48" viewBox="0 0 48 48" fill="none" xmlns="http://www.w3.org/2000/svg">
<path d="M0 12C0 5.37258 5.37258 0 12 0H36C42.6274 0 48 5.37258 48 12V36C48 42.6274 42.6274 48 36 48H12C5.37258 48 0 42.6274 0 36V12Z" fill="#1E3A8A"/>
<path d="M24.0034 13.3506C24.2815 13.3507 24.5479 13.4617 24.7446 13.6582H24.7456C26.9386 15.8555 29.366 16.3506 32.1001 16.3506C32.6791 16.3507 33.1519 16.8208 33.1519 17.4004V22.8027C33.1519 25.7256 32.4056 28.1926 30.9243 30.1719C29.4434 32.1504 27.236 33.6304 24.3335 34.5977C24.118 34.6695 23.885 34.6695 23.6694 34.5977C20.7675 33.6296 18.5597 32.1494 17.0786 30.1709C15.5972 28.1918 14.8511 25.7255 14.8511 22.8027V17.4004C14.8511 17.1221 14.962 16.8551 15.1587 16.6582C15.3556 16.4613 15.6234 16.3506 15.9019 16.3506C18.6329 16.3505 21.0623 15.8557 23.2612 13.6582C23.4581 13.4616 23.7252 13.3506 24.0034 13.3506ZM24.0015 15.4277C21.5706 17.5799 18.9692 18.063 16.6499 18.1367V22.8018C16.6499 25.3237 17.257 27.3956 18.478 29.0508C19.6917 30.6957 21.5224 31.9419 23.9995 32.8057C26.477 31.9419 28.3082 30.6958 29.522 29.0508C30.743 27.3956 31.3501 25.3237 31.3501 22.8018V18.1367C29.0309 18.0616 26.4282 17.5784 24.0015 15.4277ZM27.7485 20.8506C27.8668 20.8506 27.984 20.8737 28.0933 20.9189C28.2024 20.9642 28.3017 21.0307 28.3853 21.1143C28.4689 21.1979 28.5353 21.2979 28.5806 21.4072C28.6258 21.5165 28.6489 21.6337 28.6489 21.752C28.6489 21.8702 28.6258 21.9875 28.5806 22.0967C28.5353 22.2059 28.4688 22.3051 28.3853 22.3887L23.8853 26.8887C23.8017 26.9724 23.7025 27.0387 23.5933 27.084C23.4839 27.1293 23.3669 27.1533 23.2485 27.1533C23.1302 27.1533 23.0131 27.1293 22.9038 27.084C22.7945 27.0386 22.6944 26.9725 22.6108 26.8887V26.8877L20.3618 24.6387C20.1929 24.4698 20.0972 24.2408 20.0972 24.002C20.0972 23.763 20.1929 23.5332 20.3618 23.3643C20.5307 23.1955 20.7598 23.1006 20.9985 23.1006C21.2373 23.1006 21.4663 23.1955 21.6353 23.3643L23.2485 24.9775L27.1118 21.1143C27.1954 21.0308 27.2947 20.9642 27.4038 20.9189C27.513 20.8737 27.6303 20.8506 27.7485 20.8506Z" fill="white" stroke="white" stroke-width="0.3"/>
</svg>
